<?xml version="1.0" encoding="UTF-8" standalone="no"?>
<svg
   xmlns:dc="http://purl.org/dc/elements/1.1/"
   xmlns:cc="http://creativecommons.org/ns#"
   xmlns:rdf="http://www.w3.org/1999/02/22-rdf-syntax-ns#"
   xmlns:svg="http://www.w3.org/2000/svg"
   xmlns="http://www.w3.org/2000/svg"
   viewBox="0 0 344.33331 348.52652"
   height="348.52652"
   width="344.33331"
   xml:space="preserve"
   id="svg7597"
   version="1.1"><metadata
     id="metadata7603"><rdf:RDF><cc:Work
         rdf:about=""><dc:format>image/svg+xml</dc:format><dc:type
           rdf:resource="http://purl.org/dc/dcmitype/StillImage" /><dc:title></dc:title></cc:Work></rdf:RDF></metadata><defs
     id="defs7601"><clipPath
       id="clipPath7617"
       clipPathUnits="userSpaceOnUse"><path
         id="path7615"
         d="M 0,560 H 960 V 0 H 0 Z" /></clipPath><clipPath
       id="clipPath7625"
       clipPathUnits="userSpaceOnUse"><path
         id="path7623"
         d="M 108.763,410.701 H 331.67 V 149.299 H 108.763 Z" /></clipPath><clipPath
       id="clipPath7653"
       clipPathUnits="userSpaceOnUse"><path
         id="path7651"
         d="M 156.159,385.422 H 311.6 V 282.459 H 156.159 Z" /></clipPath><clipPath
       id="clipPath7669"
       clipPathUnits="userSpaceOnUse"><path
         id="path7667"
         d="m 201.468,376.277 h 8.685 v -29.381 h -8.685 z" /></clipPath><clipPath
       id="clipPath7685"
       clipPathUnits="userSpaceOnUse"><path
         id="path7683"
         d="m 178.209,320.73 h 9.081 v -30.662 h -9.081 z" /></clipPath><clipPath
       id="clipPath7701"
       clipPathUnits="userSpaceOnUse"><path
         id="path7699"
         d="m 234.931,320.303 h 8.13 v -26.059 h -8.13 z" /></clipPath><clipPath
       id="clipPath7717"
       clipPathUnits="userSpaceOnUse"><path
         id="path7715"
         d="M 243.062,377.408 H 255.34 V 356.057 H 243.062 Z" /></clipPath><clipPath
       id="clipPath7733"
       clipPathUnits="userSpaceOnUse"><path
         id="path7731"
         d="m 271.723,347.429 h 22.481 v -15.097 h -22.481 z" /></clipPath><clipPath
       id="clipPath7749"
       clipPathUnits="userSpaceOnUse"><path
         id="path7747"
         d="m 203.081,327.498 h 15.977 v -17.369 h -15.977 z" /></clipPath><clipPath
       id="clipPath7765"
       clipPathUnits="userSpaceOnUse"><path
         id="path7763"
         d="m 228.63,345.542 h 24.103 V 333.369 H 228.63 Z" /></clipPath><clipPath
       id="clipPath7781"
       clipPathUnits="userSpaceOnUse"><path
         id="path7779"
         d="m 278.987,323.676 h 13.592 v -15.16 h -13.592 z" /></clipPath><clipPath
       id="clipPath7797"
       clipPathUnits="userSpaceOnUse"><path
         id="path7795"
         d="m 357.511,325.021 h 2 V 308.02 h -2 z" /></clipPath><clipPath
       id="clipPath7813"
       clipPathUnits="userSpaceOnUse"><path
         id="path7811"
         d="m 350.008,317.521 h 17.004 v -2 h -17.004 z" /></clipPath><clipPath
       id="clipPath7829"
       clipPathUnits="userSpaceOnUse"><path
         id="path7827"
         d="m 116.264,391.488 h 2 v -17.002 h -2 z" /></clipPath><clipPath
       id="clipPath7845"
       clipPathUnits="userSpaceOnUse"><path
         id="path7843"
         d="m 108.762,383.988 h 17.005 v -2 h -17.005 z" /></clipPath><clipPath
       id="clipPath7861"
       clipPathUnits="userSpaceOnUse"><path
         id="path7859"
         d="m 332.082,396.426 h 17.001 v -17.004 h -17.001 z" /></clipPath><clipPath
       id="clipPath7877"
       clipPathUnits="userSpaceOnUse"><path
         id="path7875"
         d="M 590.73,410.701 H 813.637 V 149.299 H 590.73 Z" /></clipPath><clipPath
       id="clipPath7905"
       clipPathUnits="userSpaceOnUse"><path
         id="path7903"
         d="m 638.127,385.422 h 155.44 V 282.459 h -155.44 z" /></clipPath><clipPath
       id="clipPath7921"
       clipPathUnits="userSpaceOnUse"><path
         id="path7919"
         d="m 683.436,376.277 h 8.684 v -29.381 h -8.684 z" /></clipPath><clipPath
       id="clipPath7937"
       clipPathUnits="userSpaceOnUse"><path
         id="path7935"
         d="m 660.177,320.73 h 9.08 v -30.662 h -9.08 z" /></clipPath><clipPath
       id="clipPath7953"
       clipPathUnits="userSpaceOnUse"><path
         id="path7951"
         d="m 716.898,320.303 h 8.13 v -26.059 h -8.13 z" /></clipPath><clipPath
       id="clipPath7969"
       clipPathUnits="userSpaceOnUse"><path
         id="path7967"
         d="m 725.029,377.408 h 12.279 v -21.351 h -12.279 z" /></clipPath><clipPath
       id="clipPath7985"
       clipPathUnits="userSpaceOnUse"><path
         id="path7983"
         d="m 753.691,347.429 h 22.48 v -15.097 h -22.48 z" /></clipPath><clipPath
       id="clipPath8001"
       clipPathUnits="userSpaceOnUse"><path
         id="path7999"
         d="m 685.049,327.498 h 15.976 v -17.369 h -15.976 z" /></clipPath><clipPath
       id="clipPath8017"
       clipPathUnits="userSpaceOnUse"><path
         id="path8015"
         d="m 710.598,345.542 h 24.103 v -12.173 h -24.103 z" /></clipPath><clipPath
       id="clipPath8033"
       clipPathUnits="userSpaceOnUse"><path
         id="path8031"
         d="m 760.954,323.676 h 13.592 v -15.16 h -13.592 z" /></clipPath><clipPath
       id="clipPath8049"
       clipPathUnits="userSpaceOnUse"><path
         id="path8047"
         d="m 839.479,325.021 h 2 V 308.02 h -2 z" /></clipPath><clipPath
       id="clipPath8065"
       clipPathUnits="userSpaceOnUse"><path
         id="path8063"
         d="m 831.976,317.521 h 17.003 v -2 h -17.003 z" /></clipPath><clipPath
       id="clipPath8081"
       clipPathUnits="userSpaceOnUse"><path
         id="path8079"
         d="m 598.231,391.488 h 2 v -17.002 h -2 z" /></clipPath><clipPath
       id="clipPath8097"
       clipPathUnits="userSpaceOnUse"><path
         id="path8095"
         d="m 590.729,383.988 h 17.005 v -2 h -17.005 z" /></clipPath><clipPath
       id="clipPath8113"
       clipPathUnits="userSpaceOnUse"><path
         id="path8111"
         d="m 814.049,396.426 h 17.002 v -17.004 h -17.002 z" /></clipPath></defs><g
     transform="matrix(1.3333333,0,0,-1.3333333,-145.016,547.60132)"
     id="g7605"><g
       id="g7619"><g
         id="g7621" /><g
         id="g7641"><g
           style="opacity:0.30000299"
           id="g7639"
           clip-path="url(#clipPath7625)"><g
             id="g7629"
             transform="translate(231.5864,409.7012)"><path
               id="path7627"
               style="fill:none;stroke:#4b4668;stroke-width:2;stroke-linecap:round;stroke-linejoin:round;stroke-miterlimit:10;stroke-dasharray:none;stroke-opacity:1"
               d="m 0,0 c -15.142,0 -29.476,-3.406 -42.346,-9.465 -33.859,-15.683 -57.276,-49.974 -57.276,-89.726 v -13.25 -3.192 l -20.174,-38.562 c -5.084,-9.735 -0.27,-17.686 10.708,-17.686 h 9.466 v -0.217 -16.82 -19.633 c 0,-11.467 9.357,-20.82 20.821,-20.82 l 28.61,4.271 0.055,-28.556 v -0.217 c 0.162,-3.678 3.247,-6.111 7.031,-5.408 l 102.978,18.226 c 3.895,0.703 7.085,4.489 7.085,8.438 v 4.433 3.623 52.411 c 19.739,18.117 32.125,44.132 32.125,73.013 C 99.031,-44.404 54.679,0 0,0 Z" /></g><g
             id="g7633"
             transform="translate(299.6455,265.373)"><path
               id="path7631"
               style="fill:none;stroke:#4b4668;stroke-width:2;stroke-linecap:round;stroke-linejoin:round;stroke-miterlimit:10;stroke-dasharray:none;stroke-opacity:1"
               d="m 0,0 c -3.65,-5.535 -7.996,-10.625 -12.956,-15.177 l -5.69,-5.177 v -35.019" /></g><g
             id="g7637"
             transform="translate(150,201)"><path
               id="path7635"
               style="fill:none;stroke:#4b4668;stroke-width:2;stroke-linecap:round;stroke-linejoin:round;stroke-miterlimit:10;stroke-dasharray:none;stroke-opacity:1"
               d="M 0,0 V 25" /></g></g></g></g><g
       transform="translate(294.3994,340.4512)"
       id="g7643"><path
         id="path7645"
         style="fill:#6cffc0;fill-opacity:1;fill-rule:nonzero;stroke:none"
         d="m 0,0 c -1.057,7.965 -4.819,15.299 -10.729,20.846 -6.481,6.078 -14.946,9.425 -23.838,9.425 -1.373,0 -2.791,-0.095 -4.297,-0.291 -6.785,5.178 -15.147,8.014 -23.716,8.014 -9.169,0 -18.023,-3.238 -25.07,-9.144 -10.489,-0.741 -20.444,-5.069 -28.143,-12.264 -7.705,-7.195 -12.7,-16.828 -14.138,-27.215 -3.948,-4.892 -6.114,-10.978 -6.114,-17.256 0,-14.748 11.719,-26.859 26.336,-27.474 7.535,-4.983 16.264,-7.61 25.311,-7.61 11.377,0 22.221,4.174 30.69,11.785 h 28.977 c 4.194,-2.298 8.893,-3.509 13.65,-3.509 15.701,0 28.476,12.775 28.476,28.474 C 17.395,-14.697 10.491,-4.424 0,0" /></g><g
       id="g7647"><g
         id="g7649" /><g
         id="g7661"><g
           style="opacity:0.30000299"
           id="g7659"
           clip-path="url(#clipPath7653)"><g
             id="g7657"
             transform="translate(293.2036,346.4277)"><path
               id="path7655"
               style="fill:none;stroke:#4b4668;stroke-width:2;stroke-linecap:round;stroke-linejoin:round;stroke-miterlimit:10;stroke-dasharray:none;stroke-opacity:1"
               d="m 0,0 c -1.057,7.965 -4.817,15.301 -10.729,20.846 -6.479,6.078 -14.946,9.425 -23.837,9.425 -1.374,0 -2.792,-0.095 -4.297,-0.291 -6.786,5.178 -15.147,8.014 -23.716,8.014 -9.168,0 -18.024,-3.238 -25.069,-9.144 -10.493,-0.741 -20.445,-5.069 -28.145,-12.264 -7.705,-7.195 -12.7,-16.828 -14.138,-27.215 -3.95,-4.892 -6.113,-10.978 -6.113,-17.256 0,-14.748 11.718,-26.859 26.335,-27.474 7.535,-4.983 16.266,-7.61 25.311,-7.61 11.378,0 22.222,4.174 30.69,11.785 h 28.977 c 4.194,-2.298 8.893,-3.509 13.65,-3.509 15.703,0 28.477,12.775 28.477,28.474 C 17.396,-14.695 10.493,-4.424 0,0 Z" /></g></g></g></g><g
       id="g7663"><g
         id="g7665" /><g
         id="g7677"><g
           style="opacity:0.30000299"
           id="g7675"
           clip-path="url(#clipPath7669)"><g
             id="g7673"
             transform="translate(205.5557,375.2773)"><path
               id="path7671"
               style="fill:none;stroke:#4b4668;stroke-width:2;stroke-linecap:round;stroke-linejoin:round;stroke-miterlimit:10;stroke-dasharray:none;stroke-opacity:1"
               d="M 0,0 C 0,0 -8.936,-16.029 3.597,-27.381" /></g></g></g></g><g
       id="g7679"><g
         id="g7681" /><g
         id="g7693"><g
           style="opacity:0.30000299"
           id="g7691"
           clip-path="url(#clipPath7685)"><g
             id="g7689"
             transform="translate(186.2896,319.7305)"><path
               id="path7687"
               style="fill:none;stroke:#4b4668;stroke-width:2;stroke-linecap:round;stroke-linejoin:round;stroke-miterlimit:10;stroke-dasharray:none;stroke-opacity:1"
               d="M 0,0 C 0,0 -13.86,-11.115 -2.795,-28.662" /></g></g></g></g><g
       id="g7695"><g
         id="g7697" /><g
         id="g7709"><g
           style="opacity:0.30000299"
           id="g7707"
           clip-path="url(#clipPath7701)"><g
             id="g7705"
             transform="translate(235.9312,319.3027)"><path
               id="path7703"
               style="fill:none;stroke:#4b4668;stroke-width:2;stroke-linecap:round;stroke-linejoin:round;stroke-miterlimit:10;stroke-dasharray:none;stroke-opacity:1"
               d="M 0,0 C 0,0 10.965,-6.994 3.565,-24.059" /></g></g></g></g><g
       id="g7711"><g
         id="g7713" /><g
         id="g7725"><g
           style="opacity:0.30000299"
           id="g7723"
           clip-path="url(#clipPath7717)"><g
             id="g7721"
             transform="translate(254.3403,376.4082)"><path
               id="path7719"
               style="fill:none;stroke:#4b4668;stroke-width:2;stroke-linecap:round;stroke-linejoin:round;stroke-miterlimit:10;stroke-dasharray:none;stroke-opacity:1"
               d="M 0,0 C 0,0 -10.869,-5.965 -10.253,-19.352" /></g></g></g></g><g
       id="g7727"><g
         id="g7729" /><g
         id="g7741"><g
           style="opacity:0.30000299"
           id="g7739"
           clip-path="url(#clipPath7733)"><g
             id="g7737"
             transform="translate(293.2036,346.4277)"><path
               id="path7735"
               style="fill:none;stroke:#4b4668;stroke-width:2;stroke-linecap:round;stroke-linejoin:round;stroke-miterlimit:10;stroke-dasharray:none;stroke-opacity:1"
               d="M 0,0 C 0,0 -18.214,0.408 -20.48,-13.096" /></g></g></g></g><g
       id="g7743"><g
         id="g7745" /><g
         id="g7757"><g
           style="opacity:0.30000299"
           id="g7755"
           clip-path="url(#clipPath7749)"><g
             id="g7753"
             transform="translate(218.0576,326.498)"><path
               id="path7751"
               style="fill:none;stroke:#4b4668;stroke-width:2;stroke-linecap:round;stroke-linejoin:round;stroke-miterlimit:10;stroke-dasharray:none;stroke-opacity:1"
               d="M 0,0 C 0,0 -16.248,-1.602 -13.707,-15.369" /></g></g></g></g><g
       id="g7759"><g
         id="g7761" /><g
         id="g7773"><g
           style="opacity:0.30000299"
           id="g7771"
           clip-path="url(#clipPath7765)"><g
             id="g7769"
             transform="translate(229.6299,342.7715)"><path
               id="path7767"
               style="fill:none;stroke:#4b4668;stroke-width:2;stroke-linecap:round;stroke-linejoin:round;stroke-miterlimit:10;stroke-dasharray:none;stroke-opacity:1"
               d="M 0,0 C 0,0 17.628,7.51 22.104,-8.402" /></g></g></g></g><g
       id="g7775"><g
         id="g7777" /><g
         id="g7789"><g
           style="opacity:0.30000299"
           id="g7787"
           clip-path="url(#clipPath7781)"><g
             id="g7785"
             transform="translate(291.5786,322.6758)"><path
               id="path7783"
               style="fill:none;stroke:#4b4668;stroke-width:2;stroke-linecap:round;stroke-linejoin:round;stroke-miterlimit:10;stroke-dasharray:none;stroke-opacity:1"
               d="M 0,0 C 0,0 -12.826,0.09 -11.495,-13.16" /></g></g></g></g><g
       id="g7791"><g
         id="g7793" /><g
         id="g7805"><g
           style="opacity:0.30000299"
           id="g7803"
           clip-path="url(#clipPath7797)"><g
             id="g7801"
             transform="translate(358.5107,324.0215)"><path
               id="path7799"
               style="fill:none;stroke:#4b4668;stroke-width:2;stroke-linecap:round;stroke-linejoin:round;stroke-miterlimit:10;stroke-dasharray:none;stroke-opacity:1"
               d="M 0,0 V -15.002" /></g></g></g></g><g
       id="g7807"><g
         id="g7809" /><g
         id="g7821"><g
           style="opacity:0.30000299"
           id="g7819"
           clip-path="url(#clipPath7813)"><g
             id="g7817"
             transform="translate(366.0117,316.5215)"><path
               id="path7815"
               style="fill:none;stroke:#4b4668;stroke-width:2;stroke-linecap:round;stroke-linejoin:round;stroke-miterlimit:10;stroke-dasharray:none;stroke-opacity:1"
               d="M 0,0 H -15.004" /></g></g></g></g><g
       id="g7823"><g
         id="g7825" /><g
         id="g7837"><g
           style="opacity:0.30000299"
           id="g7835"
           clip-path="url(#clipPath7829)"><g
             id="g7833"
             transform="translate(117.2642,390.4883)"><path
               id="path7831"
               style="fill:none;stroke:#4b4668;stroke-width:2;stroke-linecap:round;stroke-linejoin:round;stroke-miterlimit:10;stroke-dasharray:none;stroke-opacity:1"
               d="M 0,0 V -15.002" /></g></g></g></g><g
       id="g7839"><g
         id="g7841" /><g
         id="g7853"><g
           style="opacity:0.30000299"
           id="g7851"
           clip-path="url(#clipPath7845)"><g
             id="g7849"
             transform="translate(124.7666,382.9883)"><path
               id="path7847"
               style="fill:none;stroke:#4b4668;stroke-width:2;stroke-linecap:round;stroke-linejoin:round;stroke-miterlimit:10;stroke-dasharray:none;stroke-opacity:1"
               d="M 0,0 H -15.005" /></g></g></g></g><g
       id="g7855"><g
         id="g7857" /><g
         id="g7869"><g
           style="opacity:0.30000299"
           id="g7867"
           clip-path="url(#clipPath7861)"><g
             id="g7865"
             transform="translate(348.083,387.9219)"><path
               id="path7863"
               style="fill:none;stroke:#4b4668;stroke-width:2;stroke-linecap:round;stroke-linejoin:round;stroke-miterlimit:10;stroke-dasharray:none;stroke-opacity:1"
               d="m 0,0 c 0,-4.143 -3.356,-7.5 -7.501,-7.5 -4.138,0 -7.5,3.357 -7.5,7.5 0,4.146 3.362,7.504 7.5,7.504 C -3.356,7.504 0,4.146 0,0 Z" /></g></g></g></g></g></svg>