<?xml version="1.0" encoding="UTF-8" standalone="no"?>
<svg
   xmlns:dc="http://purl.org/dc/elements/1.1/"
   xmlns:cc="http://creativecommons.org/ns#"
   xmlns:rdf="http://www.w3.org/1999/02/22-rdf-syntax-ns#"
   xmlns:svg="http://www.w3.org/2000/svg"
   xmlns="http://www.w3.org/2000/svg"
   viewBox="0 0 329.70718 291.34375"
   height="291.34375"
   width="329.70718"
   xml:space="preserve"
   id="svg2"
   version="1.1"><metadata
     id="metadata8"><rdf:RDF><cc:Work
         rdf:about=""><dc:format>image/svg+xml</dc:format><dc:type
           rdf:resource="http://purl.org/dc/dcmitype/StillImage" /><dc:title></dc:title></cc:Work></rdf:RDF></metadata><defs
     id="defs6"><clipPath
       id="clipPath22"
       clipPathUnits="userSpaceOnUse"><path
         id="path20"
         d="M 0,560 H 960 V 0 H 0 Z" /></clipPath><clipPath
       id="clipPath34"
       clipPathUnits="userSpaceOnUse"><path
         id="path32"
         d="m 164.46,389.258 h 191.602 v -191.6 H 164.46 Z" /></clipPath><clipPath
       id="clipPath50"
       clipPathUnits="userSpaceOnUse"><path
         id="path48"
         d="m 227.176,301.502 h 9.028 v -8.348 h -9.028 z" /></clipPath><clipPath
       id="clipPath66"
       clipPathUnits="userSpaceOnUse"><path
         id="path64"
         d="m 174.678,289.461 h 48.191 v -43.707 h -48.191 z" /></clipPath><clipPath
       id="clipPath82"
       clipPathUnits="userSpaceOnUse"><path
         id="path80"
         d="m 154.915,240.694 h 52.819 v -52.819 h -52.819 z" /></clipPath><clipPath
       id="clipPath98"
       clipPathUnits="userSpaceOnUse"><path
         id="path96"
         d="m 148.325,227.99 h 11.269 v -33.527 h -11.269 z" /></clipPath><clipPath
       id="clipPath114"
       clipPathUnits="userSpaceOnUse"><path
         id="path112"
         d="M 161.207,192.593 H 195.03 V 181.58 h -33.823 z" /></clipPath><clipPath
       id="clipPath134"
       clipPathUnits="userSpaceOnUse"><path
         id="path132"
         d="m 135.74,196.463 h 27.467 V 176.408 H 135.74 Z" /></clipPath><clipPath
       id="clipPath150"
       clipPathUnits="userSpaceOnUse"><path
         id="path148"
         d="m 148.325,196.463 h 14.882 V 181.58 h -14.882 z" /></clipPath><clipPath
       id="clipPath166"
       clipPathUnits="userSpaceOnUse"><path
         id="path164"
         d="m 119.076,181.432 h 2 v -10.689 h -2 z" /></clipPath><clipPath
       id="clipPath182"
       clipPathUnits="userSpaceOnUse"><path
         id="path180"
         d="m 114.732,177.089 h 10.689 v -2 h -10.689 z" /></clipPath><clipPath
       id="clipPath198"
       clipPathUnits="userSpaceOnUse"><path
         id="path196"
         d="m 180.325,182.752 h 2 v -10.689 h -2 z" /></clipPath><clipPath
       id="clipPath214"
       clipPathUnits="userSpaceOnUse"><path
         id="path212"
         d="m 175.98,178.408 h 10.689 v -2 H 175.98 Z" /></clipPath><clipPath
       id="clipPath230"
       clipPathUnits="userSpaceOnUse"><path
         id="path228"
         d="m 127.051,232.337 h 10.689 v -10.69 h -10.689 z" /></clipPath><clipPath
       id="clipPath250"
       clipPathUnits="userSpaceOnUse"><path
         id="path248"
         d="M 645.909,389.258 H 837.51 v -191.6 H 645.909 Z" /></clipPath><clipPath
       id="clipPath266"
       clipPathUnits="userSpaceOnUse"><path
         id="path264"
         d="m 708.626,301.502 h 9.027 v -8.348 h -9.027 z" /></clipPath><clipPath
       id="clipPath282"
       clipPathUnits="userSpaceOnUse"><path
         id="path280"
         d="m 656.127,289.461 h 48.192 v -43.707 h -48.192 z" /></clipPath><clipPath
       id="clipPath298"
       clipPathUnits="userSpaceOnUse"><path
         id="path296"
         d="m 636.363,240.694 h 52.821 v -52.819 h -52.821 z" /></clipPath><clipPath
       id="clipPath314"
       clipPathUnits="userSpaceOnUse"><path
         id="path312"
         d="m 629.773,227.99 h 11.27 v -33.527 h -11.27 z" /></clipPath><clipPath
       id="clipPath330"
       clipPathUnits="userSpaceOnUse"><path
         id="path328"
         d="m 642.656,192.593 h 33.823 V 181.58 h -33.823 z" /></clipPath><clipPath
       id="clipPath350"
       clipPathUnits="userSpaceOnUse"><path
         id="path348"
         d="m 617.188,196.463 h 27.468 v -20.055 h -27.468 z" /></clipPath><clipPath
       id="clipPath366"
       clipPathUnits="userSpaceOnUse"><path
         id="path364"
         d="m 629.773,196.463 h 14.883 V 181.58 h -14.883 z" /></clipPath><clipPath
       id="clipPath382"
       clipPathUnits="userSpaceOnUse"><path
         id="path380"
         d="m 600.525,181.432 h 2 v -10.689 h -2 z" /></clipPath><clipPath
       id="clipPath398"
       clipPathUnits="userSpaceOnUse"><path
         id="path396"
         d="m 596.182,177.089 h 10.688 v -2 h -10.688 z" /></clipPath><clipPath
       id="clipPath414"
       clipPathUnits="userSpaceOnUse"><path
         id="path412"
         d="m 661.774,182.752 h 2 v -10.689 h -2 z" /></clipPath><clipPath
       id="clipPath430"
       clipPathUnits="userSpaceOnUse"><path
         id="path428"
         d="m 657.43,178.408 h 10.688 v -2 H 657.43 Z" /></clipPath><clipPath
       id="clipPath446"
       clipPathUnits="userSpaceOnUse"><path
         id="path444"
         d="m 608.499,232.337 h 10.689 v -10.69 h -10.689 z" /></clipPath></defs><g
     transform="matrix(1.3333333,0,0,-1.3333333,-127.66526,617.08017)"
     id="g10"><g
       id="g1838"><g
         id="g24"
         transform="translate(340.10435,434.66093)"><path
           d="m 0,0 c 3.9,-3.898 3.9,-10.22 0,-14.119 l -131.284,-145.402 c -3.898,-3.897 -10.219,-3.897 -14.118,0 l -38.35,38.352 c -3.9,3.897 -3.898,10.217 0,14.113 L -38.35,24.232 c 3.901,3.898 10.221,3.898 14.117,0 z"
           style="fill:#6cffc0;fill-opacity:1;fill-rule:nonzero;stroke:none"
           id="path26" /></g><g
         id="g28"
         transform="translate(-18.983052,73.559326)"><g
           id="g30" /><g
           id="g42"><g
             clip-path="url(#clipPath34)"
             id="g40"
             style="opacity:0.30000299"><g
               transform="translate(352.1367,361.1016)"
               id="g38"><path
                 d="m 0,0 c 3.9,-3.898 3.9,-10.22 0,-14.119 l -131.285,-145.402 c -3.897,-3.897 -10.219,-3.897 -14.117,0 l -38.35,38.352 c -3.9,3.897 -3.898,10.217 0,14.113 L -38.35,24.232 c 3.9,3.898 10.22,3.898 14.117,0 z"
                 style="fill:none;stroke:#4b4668;stroke-width:2;stroke-linecap:round;stroke-linejoin:round;stroke-miterlimit:10;stroke-dasharray:none;stroke-opacity:1"
                 id="path36" /></g></g></g></g><g
         id="g44"
         transform="translate(-18.983052,73.559326)"><g
           id="g46" /><g
           id="g58"><g
             clip-path="url(#clipPath50)"
             id="g56"
             style="opacity:0.30000299"><g
               transform="translate(228.1763,294.1543)"
               id="g54"><path
                 d="M 0,0 7.028,6.348"
                 style="fill:none;stroke:#4b4668;stroke-width:2;stroke-linecap:round;stroke-linejoin:round;stroke-miterlimit:10;stroke-dasharray:none;stroke-opacity:1"
                 id="path52" /></g></g></g></g><g
         id="g60"
         transform="translate(-18.983052,73.559326)"><g
           id="g62" /><g
           id="g74"><g
             clip-path="url(#clipPath66)"
             id="g72"
             style="opacity:0.30000299"><g
               transform="translate(175.6782,246.7539)"
               id="g70"><path
                 d="M 0,0 46.19,41.707"
                 style="fill:none;stroke:#4b4668;stroke-width:2;stroke-linecap:round;stroke-linejoin:round;stroke-miterlimit:10;stroke-dasharray:none;stroke-opacity:1"
                 id="path68" /></g></g></g></g><g
         id="g76"
         transform="translate(-18.983052,73.559326)"><g
           id="g78" /><g
           id="g90"><g
             clip-path="url(#clipPath82)"
             id="g88"
             style="opacity:0.30000299"><g
               transform="translate(206.7344,201.5801)"
               id="g86"><path
                 d="M 0,0 -12.704,-12.705 -50.82,25.41 -38.116,38.114 Z"
                 style="fill:none;stroke:#4b4668;stroke-width:2;stroke-linecap:round;stroke-linejoin:round;stroke-miterlimit:10;stroke-dasharray:none;stroke-opacity:1"
                 id="path84" /></g></g></g></g><g
         id="g92"
         transform="translate(-18.983052,73.559326)"><g
           id="g94" /><g
           id="g106"><g
             clip-path="url(#clipPath98)"
             id="g104"
             style="opacity:0.30000299"><g
               transform="translate(149.3247,195.4629)"
               id="g102"><path
                 d="M 0,0 C 0,0 15.295,22.823 6.59,31.527"
                 style="fill:none;stroke:#4b4668;stroke-width:2;stroke-linecap:round;stroke-linejoin:round;stroke-miterlimit:10;stroke-dasharray:none;stroke-opacity:1"
                 id="path100" /></g></g></g></g><g
         id="g108"
         transform="translate(-18.983052,73.559326)"><g
           id="g110" /><g
           id="g122"><g
             clip-path="url(#clipPath114)"
             id="g120"
             style="opacity:0.30000299"><g
               transform="translate(162.207,182.5801)"
               id="g118"><path
                 d="M 0,0 C 0,0 23.117,15.002 31.823,6.295"
                 style="fill:none;stroke:#4b4668;stroke-width:2;stroke-linecap:round;stroke-linejoin:round;stroke-miterlimit:10;stroke-dasharray:none;stroke-opacity:1"
                 id="path116" /></g></g></g></g><g
         id="g124"
         transform="translate(138.04815,245.75463)"><path
           d="M 0,0 5.176,5.172 -7.707,18.053 -20.292,5.469 Z"
           style="fill:#6cffc0;fill-opacity:1;fill-rule:nonzero;stroke:none"
           id="path126" /></g><g
         id="g128"
         transform="translate(-18.983052,73.559326)"><g
           id="g130" /><g
           id="g142"><g
             clip-path="url(#clipPath134)"
             id="g140"
             style="opacity:0.30000299"><g
               transform="translate(157.0312,177.4082)"
               id="g138"><path
                 d="M 0,0 5.176,5.172 -7.707,18.055 -20.292,5.469 Z"
                 style="fill:none;stroke:#4b4668;stroke-width:2;stroke-linecap:round;stroke-linejoin:round;stroke-miterlimit:10;stroke-dasharray:none;stroke-opacity:1"
                 id="path136" /></g></g></g></g><g
         id="g144"
         transform="translate(-18.983052,73.559326)"><g
           id="g146" /><g
           id="g158"><g
             clip-path="url(#clipPath150)"
             id="g156"
             style="opacity:0.30000299"><g
               transform="translate(149.3247,195.4629)"
               id="g154"><path
                 d="M 0,0 12.882,-12.883"
                 style="fill:none;stroke:#4b4668;stroke-width:2;stroke-linecap:round;stroke-linejoin:round;stroke-miterlimit:10;stroke-dasharray:none;stroke-opacity:1"
                 id="path152" /></g></g></g></g><g
         id="g160"
         transform="translate(-18.983052,73.559326)"><g
           id="g162" /><g
           id="g174"><g
             clip-path="url(#clipPath166)"
             id="g172"
             style="opacity:0.30000299"><g
               transform="translate(120.0762,180.4316)"
               id="g170"><path
                 d="M 0,0 V -8.688"
                 style="fill:none;stroke:#4b4668;stroke-width:2;stroke-linecap:round;stroke-linejoin:round;stroke-miterlimit:10;stroke-dasharray:none;stroke-opacity:1"
                 id="path168" /></g></g></g></g><g
         id="g176"
         transform="translate(-18.983052,73.559326)"><g
           id="g178" /><g
           id="g190"><g
             clip-path="url(#clipPath182)"
             id="g188"
             style="opacity:0.30000299"><g
               transform="translate(124.4209,176.0889)"
               id="g186"><path
                 d="M 0,0 H -8.689"
                 style="fill:none;stroke:#4b4668;stroke-width:2;stroke-linecap:round;stroke-linejoin:round;stroke-miterlimit:10;stroke-dasharray:none;stroke-opacity:1"
                 id="path184" /></g></g></g></g><g
         id="g192"
         transform="translate(-18.983052,73.559326)"><g
           id="g194" /><g
           id="g206"><g
             clip-path="url(#clipPath198)"
             id="g204"
             style="opacity:0.30000299"><g
               transform="translate(181.3247,181.752)"
               id="g202"><path
                 d="M 0,0 V -8.689"
                 style="fill:none;stroke:#4b4668;stroke-width:2;stroke-linecap:round;stroke-linejoin:round;stroke-miterlimit:10;stroke-dasharray:none;stroke-opacity:1"
                 id="path200" /></g></g></g></g><g
         id="g208"
         transform="translate(-18.983052,73.559326)"><g
           id="g210" /><g
           id="g222"><g
             clip-path="url(#clipPath214)"
             id="g220"
             style="opacity:0.30000299"><g
               transform="translate(185.6689,177.4082)"
               id="g218"><path
                 d="M 0,0 H -8.688"
                 style="fill:none;stroke:#4b4668;stroke-width:2;stroke-linecap:round;stroke-linejoin:round;stroke-miterlimit:10;stroke-dasharray:none;stroke-opacity:1"
                 id="path216" /></g></g></g></g><g
         id="g224"
         transform="translate(-18.983052,73.559326)"><g
           id="g226" /><g
           id="g238"><g
             clip-path="url(#clipPath230)"
             id="g236"
             style="opacity:0.30000299"><g
               transform="translate(136.7397,226.9902)"
               id="g234"><path
                 d="m 0,0 c 0,-2.398 -1.945,-4.343 -4.345,-4.343 -2.396,0 -4.344,1.945 -4.344,4.343 0,2.401 1.948,4.347 4.344,4.347 C -1.945,4.347 0,2.401 0,0 Z"
                 style="fill:none;stroke:#4b4668;stroke-width:2;stroke-linecap:round;stroke-linejoin:round;stroke-miterlimit:10;stroke-dasharray:none;stroke-opacity:1"
                 id="path232" /></g></g></g></g></g></g></svg>