<?xml version="1.0" encoding="UTF-8" standalone="no"?>
<svg
   xmlns:dc="http://purl.org/dc/elements/1.1/"
   xmlns:cc="http://creativecommons.org/ns#"
   xmlns:rdf="http://www.w3.org/1999/02/22-rdf-syntax-ns#"
   xmlns:svg="http://www.w3.org/2000/svg"
   xmlns="http://www.w3.org/2000/svg"
   xml:space="preserve"
   enable-background="new 0 0 301.182 191.339"
   viewBox="0 0 160 160"
   height="160"
   width="160"
   y="0px"
   x="0px"
   id="svg2"
   version="1.1"><metadata
     id="metadata20"><rdf:RDF><cc:Work
         rdf:about=""><dc:format>image/svg+xml</dc:format><dc:type
           rdf:resource="http://purl.org/dc/dcmitype/StillImage" /><dc:title></dc:title></cc:Work></rdf:RDF></metadata><defs
     id="defs18" /><path
     style="fill:#6cffc0"
     id="path13"
     d="m 79.328,28.113001 c -0.193,0.009 -0.37,0.022 -0.546,0.047 v 0 c -0.118,0.016 -0.235,0.032 -0.353,0.061 v 0 l -0.305,0.054 c -0.19,0.044 -0.501,0.124 -0.92,0.245 v 0 l -0.097,0.029 c -4.522,1.276 -20.555,6.644 -37.122,22.132 v 0 C 19.174,70.146001 5.725,97.470999 0,131.925 v 0 h 11.482 c 7.537,-43.045001 26.901,-66.497999 41.9,-78.618999 v 0 l 7.198,-5.817 -4.653,7.707 C 46.236,71.231001 34.452,97.479999 32.869,131.925 v 0 H 44.316 C 46.131,95.628999 59.767,68.781001 70.969,52.571001 v 0 l 3.06,-4.426 V 131.925 H 85.366 V 48.386001 l 3.057,4.433 c 11.16,16.181 24.741,42.964998 26.56,79.104999 v 0 h 11.451 C 124.844,97.453999 113.019,71.208001 103.293,55.170001 v 0 l -4.657,-7.685 7.202,5.792 c 15.05,12.111 34.48,35.563998 42.021,78.646999 v 0 h 11.485 C 153.615,97.479999 140.153,70.158001 119.307,50.699001 v 0 c -16.313,-15.229 -32.144,-20.69 -36.978,-22.084 v 0 h -0.228 l -0.229,-0.13 c -0.391,-0.108 -0.675,-0.181 -0.851,-0.226 v 0 c -0.101,-0.003 -0.229,-0.013 -0.377,-0.041 v 0 c -0.052,-0.01 -0.184,-0.039 -0.312,-0.073 v 0 l -0.376,-0.045 c -0.004,0.003 -0.149,-0.013 -0.264,-0.025 v 0 c -0.167,0.018 -0.264,0.028 -0.364,0.038" /></svg>