<?xml version="1.0" encoding="UTF-8" standalone="no"?>
<svg
   xmlns:dc="http://purl.org/dc/elements/1.1/"
   xmlns:cc="http://creativecommons.org/ns#"
   xmlns:rdf="http://www.w3.org/1999/02/22-rdf-syntax-ns#"
   xmlns:svg="http://www.w3.org/2000/svg"
   xmlns="http://www.w3.org/2000/svg"
   version="1.1"
   id="svg2"
   x="0px"
   y="0px"
   width="170"
   height="170"
   viewBox="0 0 170 170"
   enable-background="new 0 0 301.182 191.339"
   xml:space="preserve"><metadata
     id="metadata20"><rdf:RDF><cc:Work
         rdf:about=""><dc:format>image/svg+xml</dc:format><dc:type
           rdf:resource="http://purl.org/dc/dcmitype/StillImage" /><dc:title></dc:title></cc:Work></rdf:RDF></metadata><defs
     id="defs18" /><rect
     y="0"
     x="0"
     height="170"
     width="170"
     id="rect818"
     style="fill:#6cffc0;fill-opacity:1;stroke-width:1.05802619" /><path
     d="m 84.656,33.113 c -0.193,0.009 -0.37,0.022 -0.546,0.047 v 0 c -0.118,0.016 -0.235,0.032 -0.353,0.061 v 0 l -0.305,0.054 c -0.19,0.044 -0.501,0.123999 -0.92,0.245 v 0 l -0.097,0.029 C 77.913,34.825 61.88,40.193 45.313,55.681 v 0 c -20.811,19.465 -34.26,46.79 -39.985,81.244 v 0 H 16.81 C 24.347,93.88 43.711,70.427 58.71,58.306001 v 0 l 7.198,-5.817 L 61.255,60.196 C 51.564,76.230999 39.78,102.48 38.197,136.925 v 0 H 49.644 C 51.459,100.629 65.095,73.781 76.297,57.571001 v 0 l 3.06,-4.426 V 136.925 H 90.694 V 53.386 l 3.057,4.433 c 11.16,16.181 24.741,42.965 26.56,79.105 v 0 h 11.451 c -1.59,-34.47 -13.415,-60.716001 -23.141,-76.753999 v 0 l -4.657,-7.685 7.202,5.792 C 126.216,70.388 145.646,93.841 153.187,136.924 v 0 h 11.485 C 158.943,102.48 145.481,75.158 124.635,55.699 v 0 C 108.322,40.47 92.491,35.009 87.657,33.615 v 0 H 87.429 L 87.2,33.485 c -0.391,-0.108 -0.675,-0.181 -0.851,-0.226 v 0 C 86.248,33.256 86.12,33.246 85.972,33.218 v 0 C 85.92,33.208 85.788,33.179 85.66,33.145 v 0 L 85.284,33.1 C 85.28,33.103 85.135,33.087 85.02,33.075 v 0 c -0.167,0.018 -0.264,0.028 -0.364,0.038"
     id="path13"
     style="fill:#ffffff;fill-opacity:1" /></svg>