<?xml version="1.0" encoding="utf-8"?>
<!-- Generator: Adobe Illustrator 16.0.0, SVG Export Plug-In . SVG Version: 6.00 Build 0)  -->
<!DOCTYPE svg PUBLIC "-//W3C//DTD SVG 1.1//EN" "http://www.w3.org/Graphics/SVG/1.1/DTD/svg11.dtd">
<svg version="1.1" id="svg2" xmlns="http://www.w3.org/2000/svg" xmlns:xlink="http://www.w3.org/1999/xlink" x="0px" y="0px"
	 width="301.182px" height="191.339px" viewBox="0 0 301.182 191.339" enable-background="new 0 0 301.182 191.339"
	 xml:space="preserve">
<g id="g14" transform="matrix(2.765946,0,0,2.5457153,-212.74758,-142.23506)">
	<g>
		<defs>
			<path id="SVGID_1_" d="M93.078,90.953c-0.356,0-0.594,0.199-0.752,0.396l0,0l-9.983,11.25V91.904c0-0.515-0.435-0.951-0.95-0.951
				l0,0h-3.485c-0.555,0-0.952,0.436-0.952,0.951l0,0v25.825c0,0.515,0.396,0.95,0.952,0.95l0,0h3.485c0.515,0,0.95-0.435,0.95-0.95
				l0,0v-12.08l10.339,12.754c0.079,0.118,0.316,0.277,0.712,0.277l0,0h4.317c0.793,0,1.11-0.87,0.714-1.386l0,0l-11.09-13.269
				l10.338-11.645c0.514-0.594,0.117-1.426-0.634-1.426l0,0H93.078z M100.762,94.478c0,1.506,1.189,2.734,2.694,2.734l0,0
				c1.544,0,2.772-1.228,2.772-2.734l0,0c0-1.505-1.229-2.732-2.772-2.732l0,0C101.951,91.745,100.762,92.973,100.762,94.478
				 M178.158,104.895l-0.555-1.544c-0.119-0.318-0.358-0.515-0.712-0.515l0,0h-1.507c-0.395,0-0.751,0.316-0.751,0.752l0,0v14.339
				c0,0.396,0.356,0.751,0.751,0.751l0,0h3.051c0.555,0,0.91-0.198,0.91-0.751l0,0v-9.586c0.277-0.555,1.229-1.624,2.812-1.624l0,0
				c0.435,0,1.03,0.198,1.149,0.238l0,0c0.318,0.159,0.713,0,0.911-0.356l0,0l1.465-2.575c0.475-0.99-1.189-1.584-3.049-1.584l0,0
				C180.178,102.44,178.712,104.103,178.158,104.895 M155.818,110.756c0,4.556,3.366,8.319,8.12,8.319l0,0
				c2.575,0,4.595-0.951,5.903-2.177l0,0c0.395-0.318,0.317-0.754,0.039-1.03l0,0l-1.624-1.861c-0.278-0.317-0.634-0.237-1.03,0l0,0
				c-0.712,0.515-1.861,0.99-3.089,0.99l0,0c-2.297,0-3.685-1.823-3.803-3.446l0,0h10.139c0.358,0,0.714-0.278,0.754-0.674l0,0
				c0.039-0.278,0.079-0.793,0.079-1.069l0,0c0-4.279-3.327-7.368-7.407-7.368l0,0C159.185,102.44,155.818,106.282,155.818,110.756
				 M163.781,106.084c1.505,0,2.771,1.228,2.89,2.693l0,0h-5.98C160.888,107.271,162.196,106.084,163.781,106.084 M138.906,110.756
				c0,4.755,3.921,8.319,8.396,8.319l0,0c2.813,0,4.912-1.228,6.258-3.326l0,0c0.278-0.397,0.119-0.793-0.278-1.11l0,0l-1.702-1.465
				c-0.317-0.237-0.714-0.157-0.991,0.119l0,0c-0.712,0.674-1.465,1.505-3.167,1.505l0,0c-2.139,0-3.843-1.781-3.843-4.041l0,0
				c0-2.218,1.741-4.039,3.881-4.039l0,0c1.11,0,2.099,0.554,2.733,1.267l0,0c0.277,0.238,0.635,0.435,0.991,0.119l0,0l1.821-1.742
				c0.396-0.278,0.476-0.754,0.198-1.109l0,0c-1.506-1.823-3.406-2.813-5.862-2.813l0,0
				C142.906,102.44,138.906,106.084,138.906,110.756 M131.34,102.836c-0.396,0-0.753,0.316-0.753,0.752l0,0v14.339
				c0,0.396,0.356,0.751,0.753,0.751l0,0h3.287c0.398,0,0.754-0.355,0.754-0.751l0,0v-14.339c0-0.436-0.356-0.752-0.754-0.752l0,0
				H131.34z M122.072,102.836c-0.635,0-0.872,0.158-0.872,0.752l0,0v8.238c-0.236,1.428-1.505,2.971-3.169,2.971l0,0
				c-1.821,0-2.891-1.308-2.891-3.406l0,0v-7.803c0-0.436-0.355-0.752-0.753-0.752l0,0h-3.247c-0.396,0-0.753,0.316-0.753,0.752l0,0
				v7.684c0,4.04,1.781,7.803,6.694,7.803l0,0c3.129,0,4.595-1.663,5.308-2.297l0,0l0.475,1.308c0.12,0.317,0.358,0.594,0.754,0.594
				l0,0h1.465c0.396,0,0.753-0.355,0.753-0.751l0,0v-14.339c0-0.436-0.356-0.752-0.753-0.752l0,0H122.072z M101.832,102.836
				c-0.396,0-0.753,0.316-0.753,0.752l0,0v19.369c0,2.297-0.991,3.604-2.774,3.604l0,0c-0.87,0-1.821-0.475-2.336-0.793l0,0
				c-0.356-0.198-0.793-0.117-0.95,0.199l0,0l-1.307,2.535c-0.159,0.278-0.12,0.714,0.159,0.911l0,0
				c0.672,0.634,2.574,1.545,4.674,1.545l0,0c4.199,0,7.366-2.774,7.366-8.001l0,0v-19.369c0-0.436-0.356-0.752-0.752-0.752l0,0
				H101.832L101.832,102.836z M130.526,127.101c0,1.506,1.189,2.734,2.695,2.734l0,0c1.544,0,2.773-1.228,2.773-2.734l0,0
				c0-1.504-1.229-2.732-2.773-2.732l0,0C131.715,124.369,130.526,125.598,130.526,127.101"/>
		</defs>
		<use xlink:href="#SVGID_1_"  overflow="visible" fill="#FFFFFF"/>
		<clipPath id="SVGID_2_">
			<use xlink:href="#SVGID_1_"  overflow="visible"/>
		</clipPath>
	</g>
</g>
<path fill="#6CFFC0" d="M176.714,0.243c-0.193,0.009-0.37,0.022-0.546,0.047l0,0c-0.118,0.016-0.235,0.032-0.353,0.061l0,0
	l-0.305,0.054c-0.19,0.044-0.501,0.124-0.92,0.245l0,0l-0.097,0.029c-4.522,1.276-20.555,6.644-37.122,22.132l0,0
	c-20.811,19.465-34.26,46.79-39.985,81.244l0,0h11.482c7.537-43.045,26.901-66.498,41.9-78.619l0,0l7.198-5.817l-4.653,7.707
	c-9.691,16.035-21.475,42.284-23.058,76.729l0,0h11.447c1.815-36.296,15.451-63.144,26.653-79.354l0,0l3.06-4.426v83.78h11.337
	V20.516l3.057,4.433c11.16,16.181,24.741,42.965,26.56,79.105l0,0h11.451c-1.59-34.47-13.415-60.716-23.141-76.754l0,0l-4.657-7.685
	l7.202,5.792c15.05,12.111,34.48,35.564,42.021,78.647l0,0h11.485c-5.729-34.444-19.191-61.766-40.037-81.225l0,0
	C200.38,7.6,184.549,2.139,179.715,0.745l0,0h-0.228l-0.229-0.13c-0.391-0.108-0.675-0.181-0.851-0.226l0,0
	c-0.101-0.003-0.229-0.013-0.377-0.041l0,0c-0.052-0.01-0.184-0.039-0.312-0.073l0,0l-0.376-0.045
	c-0.004,0.003-0.149-0.013-0.264-0.025l0,0C176.911,0.223,176.814,0.233,176.714,0.243"/>
</svg>
