<?xml version="1.0" encoding="UTF-8" standalone="no"?>
<svg
   xmlns:dc="http://purl.org/dc/elements/1.1/"
   xmlns:cc="http://creativecommons.org/ns#"
   xmlns:rdf="http://www.w3.org/1999/02/22-rdf-syntax-ns#"
   xmlns:svg="http://www.w3.org/2000/svg"
   xmlns="http://www.w3.org/2000/svg"
   viewBox="0 0 401.28 254.58667"
   height="254.58667"
   width="401.28"
   xml:space="preserve"
   id="svg2"
   version="1.1"><metadata
     id="metadata8"><rdf:RDF><cc:Work
         rdf:about=""><dc:format>image/svg+xml</dc:format><dc:type
           rdf:resource="http://purl.org/dc/dcmitype/StillImage" /><dc:title></dc:title></cc:Work></rdf:RDF></metadata><defs
     id="defs6" /><g
     transform="matrix(1.3333333,0,0,-1.3333333,0,254.58667)"
     id="g10"><g
       transform="scale(0.1)"
       id="g12"><path
         id="path14"
         style="fill:#ffffff;fill-opacity:1;fill-rule:nonzero;stroke:none"
         d="m 1481.69,98.1992 c 0,-38.3398 32.88,-69.5898 74.54,-69.5898 v 0 c 42.7,0 76.69,31.25 76.69,69.5898 v 0 c 0,38.2888 -33.99,69.5708 -76.69,69.5708 v 0 c -41.66,0 -74.54,-31.282 -74.54,-69.5708 M 688.035,715.922 c -10.965,0 -20.816,-8.063 -20.816,-19.152 v 0 -493.079 c 0,-58.48 -27.414,-91.742 -76.723,-91.742 v 0 c -24.058,0 -50.367,12.082 -64.617,20.172 v 0 c -9.856,5.039 -21.926,2.988 -26.277,-5.062 v 0 L 463.438,62.5313 c -4.395,-7.0704 -3.321,-18.1602 4.394,-23.1993 v 0 C 486.426,23.1992 539.016,0 597.102,0 v 0 c 116.14,0 203.75,70.6211 203.75,203.691 v 0 493.079 c 0,11.089 -9.856,19.152 -20.813,19.152 v 0 h -92.004 z m 559.825,0 c -17.57,0 -24.13,-4.012 -24.13,-19.152 v 0 -209.711 c -6.53,-36.348 -41.63,-75.637 -87.65,-75.637 v 0 c -50.38,0 -79.97,33.289 -79.97,86.719 v 0 198.629 c 0,11.089 -9.82,19.152 -20.82,19.152 v 0 h -89.81 c -10.968,0 -20.824,-8.063 -20.824,-19.152 v 0 -195.61 c 0,-102.851 49.27,-198.629 185.144,-198.629 v 0 c 86.55,0 127.1,42.328 146.81,58.489 v 0 l 13.14,-33.29 c 3.32,-8.082 9.89,-15.121 20.85,-15.121 v 0 h 40.51 c 10.97,0 20.82,9.039 20.82,19.129 v 0 365.032 c 0,11.089 -9.85,19.152 -20.82,19.152 v 0 z m 256.34,0 c -10.97,0 -20.82,-8.063 -20.82,-19.152 v 0 -365.032 c 0,-10.09 9.85,-19.129 20.82,-19.129 v 0 h 90.93 c 10.99,0 20.85,9.039 20.85,19.129 v 0 365.032 c 0,11.089 -9.86,19.152 -20.85,19.152 v 0 z m 209.28,-201.621 c 0,-121.051 108.45,-211.77 232.23,-211.77 v 0 c 77.8,0 135.87,31.25 173.11,84.668 v 0 c 7.67,10.102 3.29,20.172 -7.68,28.262 v 0 l -47.09,37.309 c -8.78,6.031 -19.73,4 -27.41,-3.032 v 0 c -19.71,-17.148 -40.52,-38.316 -87.61,-38.316 v 0 c -59.16,0 -106.29,45.348 -106.29,102.879 v 0 c 0,56.449 48.17,102.82 107.36,102.82 v 0 c 30.7,0 58.05,-14.101 75.58,-32.262 v 0 c 7.68,-6.058 17.56,-11.078 27.42,-3.027 v 0 l 50.38,44.348 c 10.95,7.07 13.16,19.191 5.48,28.23 v 0 c -41.66,46.399 -94.2,71.602 -162.14,71.602 v 0 c -122.71,0 -233.34,-92.762 -233.34,-211.711 M 2401.5,633.25 c 41.63,0 76.65,-31.25 79.94,-68.551 v 0 h -165.4 c 5.45,38.321 41.63,68.551 85.46,68.551 M 2181.26,514.301 c 0,-115.992 93.12,-211.77 224.6,-211.77 v 0 c 71.22,0 127.09,24.219 163.26,55.43 v 0 c 10.92,8.09 8.78,19.187 1.08,26.219 v 0 l -44.92,47.379 c -7.67,8.082 -17.53,6.05 -28.49,0 v 0 c -19.71,-13.11 -51.48,-25.2 -85.43,-25.2 v 0 c -63.55,0 -101.93,46.403 -105.18,87.731 v 0 h 280.43 c 9.89,0 19.75,7.07 20.85,17.148 v 0 c 1.08,7.071 2.18,20.184 2.18,27.211 v 0 c 0,108.922 -92.03,187.563 -204.88,187.563 v 0 c -130.38,0 -223.5,-97.801 -223.5,-211.711 m 617.92,149.211 -15.35,39.289 c -3.29,8.09 -9.89,13.121 -19.71,13.121 v 0 h -41.67 c -10.92,0 -20.77,-8.063 -20.77,-19.152 v 0 -365.032 c 0,-10.09 9.85,-19.129 20.77,-19.129 v 0 h 84.4 c 15.35,0 25.17,5.039 25.17,19.129 v 0 244.032 c 7.68,14.14 33.99,41.351 77.79,41.351 v 0 c 12.04,0 28.49,-5.039 31.77,-6.051 v 0 c 8.79,-4.05 19.72,0 25.21,9.071 v 0 l 40.52,65.558 c 13.14,25.192 -32.88,40.313 -84.32,40.313 v 0 c -67.94,0 -108.5,-42.332 -123.81,-62.5 M 658.438,928.715 c 0,-38.356 32.878,-69.606 74.511,-69.606 v 0 c 42.696,0 76.68,31.25 76.68,69.606 v 0 c 0,38.308 -33.984,69.558 -76.68,69.558 v 0 c -41.633,0 -74.511,-31.25 -74.511,-69.558 m -212.532,89.735 c -9.851,0 -16.426,-5.06 -20.808,-10.09 v 0 L 148.984,721.961 V 994.23 c 0,13.11 -12.031,24.22 -26.281,24.22 v 0 H 26.3203 C 10.9688,1018.45 0,1007.34 0,994.23 v 0 -657.429 C 0,323.68 10.9688,312.609 26.3203,312.609 v 0 h 96.3827 c 14.25,0 26.281,11.071 26.281,24.192 v 0 307.531 L 434.949,319.648 c 2.18,-3 8.742,-7.039 19.707,-7.039 v 0 H 574.07 c 21.926,0 30.703,22.153 19.746,35.289 v 0 L 287.07,685.699 573.008,982.141 c 14.211,15.113 3.242,36.309 -17.528,36.309 v 0 H 445.906" /><path
         id="path16"
         style="fill:#6acdc0;fill-opacity:1;fill-rule:nonzero;stroke:none"
         d="m 1766.03,1909.06 c -1.94,-0.09 -3.71,-0.22 -5.46,-0.47 v 0 c -1.19,-0.16 -2.36,-0.32 -3.53,-0.61 v 0 l -3.05,-0.54 c -1.9,-0.44 -5.01,-1.24 -9.2,-2.45 v 0 l -0.96,-0.29 c -45.23,-12.75 -205.55,-66.44 -371.22,-221.31 v 0 C 1164.5,1488.74 1030.01,1215.48 972.754,870.949 v 0 h 114.826 c 75.37,430.451 269.01,664.981 419,786.191 v 0 l 71.98,58.16 -46.53,-77.07 c -96.91,-160.34 -214.74,-422.84 -230.57,-767.281 v 0 h 114.47 c 18.15,362.961 154.51,631.441 266.53,793.541 v 0 l 30.6,44.26 V 870.949 h 113.37 v 835.391 l 30.56,-44.34 c 111.6,-161.81 247.41,-429.65 265.6,-791.051 v 0 h 114.51 c -15.9,344.691 -134.15,607.161 -231.41,767.541 v 0 l -46.57,76.85 72.02,-57.91 c 150.5,-121.12 344.81,-355.64 420.22,-786.481 v 0 h 114.85 C 2508.93,1215.39 2374.3,1488.61 2165.84,1683.2 v 0 c -163.15,152.3 -321.46,206.9 -369.8,220.84 v 0 h -2.28 l -2.29,1.3 c -3.9,1.08 -6.74,1.82 -8.5,2.27 v 0 c -1.01,0.02 -2.29,0.12 -3.77,0.41 v 0 c -0.52,0.09 -1.84,0.38 -3.12,0.73 v 0 l -3.76,0.45 c -0.03,-0.04 -1.49,0.12 -2.63,0.25 v 0 c -1.69,-0.19 -2.66,-0.29 -3.66,-0.38" /></g></g></svg>