<?xml version="1.0" encoding="UTF-8" standalone="no"?>
<svg
   xmlns:dc="http://purl.org/dc/elements/1.1/"
   xmlns:cc="http://creativecommons.org/ns#"
   xmlns:rdf="http://www.w3.org/1999/02/22-rdf-syntax-ns#"
   xmlns:svg="http://www.w3.org/2000/svg"
   xmlns="http://www.w3.org/2000/svg"
   viewBox="0 0 291.23438 227.72682"
   height="227.72682"
   width="291.23438"
   xml:space="preserve"
   id="svg1897"
   version="1.1"><metadata
     id="metadata1903"><rdf:RDF><cc:Work
         rdf:about=""><dc:format>image/svg+xml</dc:format><dc:type
           rdf:resource="http://purl.org/dc/dcmitype/StillImage" /><dc:title></dc:title></cc:Work></rdf:RDF></metadata><defs
     id="defs1901"><clipPath
       id="clipPath1917"
       clipPathUnits="userSpaceOnUse"><path
         id="path1915"
         d="M 0,560 H 960 V 0 H 0 Z" /></clipPath><clipPath
       id="clipPath1929"
       clipPathUnits="userSpaceOnUse"><path
         id="path1927"
         d="m 644.335,208.625 h 2 V 194.6 h -2 z" /></clipPath><clipPath
       id="clipPath1945"
       clipPathUnits="userSpaceOnUse"><path
         id="path1943"
         d="m 638.321,202.611 h 14.026 v -2 h -14.026 z" /></clipPath><clipPath
       id="clipPath1961"
       clipPathUnits="userSpaceOnUse"><path
         id="path1959"
         d="m 691.457,316.477 h 2 v -14.026 h -2 z" /></clipPath><clipPath
       id="clipPath1977"
       clipPathUnits="userSpaceOnUse"><path
         id="path1975"
         d="m 685.444,310.463 h 14.026 v -2 h -14.026 z" /></clipPath><clipPath
       id="clipPath1993"
       clipPathUnits="userSpaceOnUse"><path
         id="path1991"
         d="m 808.353,293.625 h 14.025 v -14.023 h -14.025 z" /></clipPath><clipPath
       id="clipPath2009"
       clipPathUnits="userSpaceOnUse"><path
         id="path2007"
         d="M 609.155,365.401 H 826.182 V 207.826 H 609.155 Z" /></clipPath><clipPath
       id="clipPath2025"
       clipPathUnits="userSpaceOnUse"><path
         id="path2023"
         d="m 701.745,305.812 h 58.781 v -59.708 h -58.781 z" /></clipPath><clipPath
       id="clipPath2049"
       clipPathUnits="userSpaceOnUse"><path
         id="path2047"
         d="m 164.464,208.625 h 2 V 194.6 h -2 z" /></clipPath><clipPath
       id="clipPath2065"
       clipPathUnits="userSpaceOnUse"><path
         id="path2063"
         d="m 158.451,202.611 h 14.026 v -2 h -14.026 z" /></clipPath><clipPath
       id="clipPath2081"
       clipPathUnits="userSpaceOnUse"><path
         id="path2079"
         d="m 211.585,316.477 h 2 v -14.026 h -2 z" /></clipPath><clipPath
       id="clipPath2097"
       clipPathUnits="userSpaceOnUse"><path
         id="path2095"
         d="m 205.572,310.463 h 14.026 v -2 h -14.026 z" /></clipPath><clipPath
       id="clipPath2113"
       clipPathUnits="userSpaceOnUse"><path
         id="path2111"
         d="m 328.481,293.625 h 14.027 v -14.023 h -14.027 z" /></clipPath><clipPath
       id="clipPath2129"
       clipPathUnits="userSpaceOnUse"><path
         id="path2127"
         d="M 129.284,365.401 H 346.312 V 207.826 H 129.284 Z" /></clipPath><clipPath
       id="clipPath2145"
       clipPathUnits="userSpaceOnUse"><path
         id="path2143"
         d="m 221.872,305.812 h 58.783 v -59.708 h -58.783 z" /></clipPath></defs><g
     transform="matrix(1.3333333,0,0,-1.3333333,-172.38643,487.19348)"
     id="g1905"><g
       id="g2933"><g
         id="g2039"
         transform="translate(199.1162,208.8418)"><path
           d="m 0,0 c 3.27,-3.219 7.521,-4.824 11.773,-4.824 4.345,0 8.685,1.678 11.968,5.013 l 120.036,121.997 c 6.505,6.607 6.416,17.238 -0.188,23.742 -6.61,6.504 -17.239,6.414 -23.746,-0.194 L 11.73,35.859 -37.71,85.758 c -6.535,6.586 -17.161,6.635 -23.747,0.107 -6.586,-6.527 -6.632,-17.158 -0.108,-23.74 L -0.149,0.146 c 3.284,-3.312 7.605,-4.97 11.925,-4.97 4.271,0 8.541,1.621 11.815,4.863"
           style="fill:#6cffc0;fill-opacity:1;fill-rule:nonzero;stroke:none"
           id="path2041" /></g><g
         id="g2043"><g
           id="g2045" /><g
           id="g2057"><g
             clip-path="url(#clipPath2049)"
             id="g2055"
             style="opacity:0.30000299"><g
               transform="translate(165.4639,207.625)"
               id="g2053"><path
                 d="M 0,0 V -12.025"
                 style="fill:none;stroke:#4b4668;stroke-width:2;stroke-linecap:round;stroke-linejoin:round;stroke-miterlimit:10;stroke-dasharray:none;stroke-opacity:1"
                 id="path2051" /></g></g></g></g><g
         id="g2059"><g
           id="g2061" /><g
           id="g2073"><g
             clip-path="url(#clipPath2065)"
             id="g2071"
             style="opacity:0.30000299"><g
               transform="translate(171.4766,201.6113)"
               id="g2069"><path
                 d="M 0,0 H -12.025"
                 style="fill:none;stroke:#4b4668;stroke-width:2;stroke-linecap:round;stroke-linejoin:round;stroke-miterlimit:10;stroke-dasharray:none;stroke-opacity:1"
                 id="path2067" /></g></g></g></g><g
         id="g2075"><g
           id="g2077" /><g
           id="g2089"><g
             clip-path="url(#clipPath2081)"
             id="g2087"
             style="opacity:0.30000299"><g
               transform="translate(212.585,315.4766)"
               id="g2085"><path
                 d="M 0,0 V -12.025"
                 style="fill:none;stroke:#4b4668;stroke-width:2;stroke-linecap:round;stroke-linejoin:round;stroke-miterlimit:10;stroke-dasharray:none;stroke-opacity:1"
                 id="path2083" /></g></g></g></g><g
         id="g2091"><g
           id="g2093" /><g
           id="g2105"><g
             clip-path="url(#clipPath2097)"
             id="g2103"
             style="opacity:0.30000299"><g
               transform="translate(218.5977,309.4629)"
               id="g2101"><path
                 d="M 0,0 H -12.025"
                 style="fill:none;stroke:#4b4668;stroke-width:2;stroke-linecap:round;stroke-linejoin:round;stroke-miterlimit:10;stroke-dasharray:none;stroke-opacity:1"
                 id="path2099" /></g></g></g></g><g
         id="g2107"><g
           id="g2109" /><g
           id="g2121"><g
             clip-path="url(#clipPath2113)"
             id="g2119"
             style="opacity:0.30000299"><g
               transform="translate(341.5078,286.6113)"
               id="g2117"><path
                 d="m 0,0 c 0,-3.318 -2.692,-6.01 -6.013,-6.01 -3.317,0 -6.013,2.692 -6.013,6.01 0,3.322 2.696,6.014 6.013,6.014 C -2.692,6.014 0,3.322 0,0 Z"
                 style="fill:none;stroke:#4b4668;stroke-width:2;stroke-linecap:round;stroke-linejoin:round;stroke-miterlimit:10;stroke-dasharray:none;stroke-opacity:1"
                 id="path2115" /></g></g></g></g><g
         id="g2123"><g
           id="g2125" /><g
           id="g2137"><g
             clip-path="url(#clipPath2129)"
             id="g2135"
             style="opacity:0.30000299"><g
               transform="translate(196.7119,213.6504)"
               id="g2133"><path
                 d="m 0,0 c 3.269,-3.217 7.521,-4.824 11.771,-4.824 4.345,0 8.686,1.678 11.97,5.015 l 120.035,121.995 c 6.506,6.609 6.417,17.24 -0.187,23.742 -6.61,6.508 -17.24,6.416 -23.747,-0.192 L 11.729,35.859 -37.712,85.758 c -6.534,6.586 -17.16,6.635 -23.746,0.109 -6.586,-6.529 -6.632,-17.16 -0.107,-23.742 L -0.151,0.15 c 3.284,-3.312 7.605,-4.974 11.927,-4.974 4.271,0 8.539,1.621 11.815,4.865"
                 style="fill:none;stroke:#4b4668;stroke-width:2;stroke-linecap:round;stroke-linejoin:round;stroke-miterlimit:10;stroke-dasharray:none;stroke-opacity:1"
                 id="path2131" /></g></g></g></g><g
         id="g2139"><g
           id="g2141" /><g
           id="g2157"><g
             clip-path="url(#clipPath2145)"
             id="g2155"
             style="opacity:0.30000299"><g
               transform="translate(256.6055,281.3828)"
               id="g2149"><path
                 d="M 0,0 -33.733,-34.279"
                 style="fill:none;stroke:#4b4668;stroke-width:2;stroke-linecap:round;stroke-linejoin:round;stroke-miterlimit:10;stroke-dasharray:none;stroke-opacity:1"
                 id="path2147" /></g><g
               transform="translate(279.6553,304.8125)"
               id="g2153"><path
                 d="M 0,0 -12.322,-12.523"
                 style="fill:none;stroke:#4b4668;stroke-width:2;stroke-linecap:round;stroke-linejoin:round;stroke-miterlimit:10;stroke-dasharray:none;stroke-opacity:1"
                 id="path2151" /></g></g></g></g></g></g></svg>