<?xml version="1.0" encoding="UTF-8" standalone="no"?>
<!-- Created with Inkscape (http://www.inkscape.org/) -->

<svg
   xmlns:dc="http://purl.org/dc/elements/1.1/"
   xmlns:cc="http://creativecommons.org/ns#"
   xmlns:rdf="http://www.w3.org/1999/02/22-rdf-syntax-ns#"
   xmlns:svg="http://www.w3.org/2000/svg"
   xmlns="http://www.w3.org/2000/svg"
   xmlns:xlink="http://www.w3.org/1999/xlink"
   xmlns:sodipodi="http://sodipodi.sourceforge.net/DTD/sodipodi-0.dtd"
   xmlns:inkscape="http://www.inkscape.org/namespaces/inkscape"
   id="svg2"
   version="1.1"
   inkscape:version="0.91 r13725"
   xml:space="preserve"
   width="187.5"
   height="187.5"
   viewBox="0 0 187.5 187.50001"
   sodipodi:docname="logo_juicer.svg"><metadata
     id="metadata8"><rdf:RDF><cc:Work
         rdf:about=""><dc:format>image/svg+xml</dc:format><dc:type
           rdf:resource="http://purl.org/dc/dcmitype/StillImage" /><dc:title></dc:title></cc:Work></rdf:RDF></metadata><defs
     id="defs6"><linearGradient
       id="linearGradient4182"
       spreadMethod="pad"
       gradientTransform="matrix(0,60.004654,60.004654,0,76.948822,55.932358)"
       gradientUnits="userSpaceOnUse"
       y2="0"
       x2="1"
       y1="0"
       x1="0"><stop
         id="stop4184"
         offset="0"
         style="stop-opacity:1;stop-color:#16ff5d" /><stop
         id="stop4186"
         offset="0.12326128"
         style="stop-opacity:1;stop-color:#16ff5d" /><stop
         id="stop4188"
         offset="0.44090408"
         style="stop-opacity:1;stop-color:#97fc17" /><stop
         id="stop4190"
         offset="0.62845296"
         style="stop-opacity:1;stop-color:#97fc17" /><stop
         id="stop4192"
         offset="1"
         style="stop-opacity:1;stop-color:#ffff00" /></linearGradient><clipPath
       clipPathUnits="userSpaceOnUse"
       id="clipPath18"><path
         d="m 128.028,115.925 c -0.056,-0.003 -0.107,-0.007 -0.158,-0.015 l 0,0 c -0.034,-0.005 -0.068,-0.01 -0.102,-0.019 l 0,0 -0.088,-0.017 c -0.055,-0.014 -0.145,-0.039 -0.266,-0.077 l 0,0 -0.028,-0.009 c -1.308,-0.401 -5.945,-2.088 -10.737,-6.955 l 0,0 C 110.63,102.716 106.74,94.129 105.084,83.302 l 0,0 3.321,0 c 2.18,13.527 7.781,20.897 12.119,24.706 l 0,0 2.082,1.828 -1.346,-2.422 c -2.803,-5.039 -6.211,-13.288 -6.669,-24.112 l 0,0 3.311,0 c 0.525,11.406 4.469,19.843 7.709,24.937 l 0,0 0.885,1.391 0,-26.328 3.279,0 0,26.252 0.884,-1.393 c 3.228,-5.085 7.156,-13.502 7.682,-24.859 l 0,0 3.312,0 c -0.46,10.832 -3.88,19.08 -6.693,24.12 l 0,0 -1.347,2.415 2.083,-1.82 c 4.353,-3.806 9.973,-11.176 12.154,-24.715 l 0,0 3.322,0 c -1.657,10.824 -5.551,19.41 -11.58,25.525 l 0,0 c -4.719,4.786 -9.298,6.502 -10.696,6.94 l 0,0 -0.066,0 -0.066,0.041 c -0.113,0.034 -0.195,0.057 -0.246,0.071 l 0,0 c -0.029,10e-4 -0.066,0.004 -0.109,0.013 l 0,0 c -0.015,0.003 -0.053,0.012 -0.09,0.023 l 0,0 -0.109,0.014 c -0.001,-0.001 -0.043,0.004 -0.076,0.008 l 0,0 c -0.049,-0.006 -0.077,-0.009 -0.106,-0.012 M 89.846,87.937 c -0.285,0 -0.475,-0.159 -0.602,-0.317 l 0,0 -7.986,-9 0,8.556 c 0,0.412 -0.348,0.761 -0.76,0.761 l 0,0 -2.788,0 c -0.444,0 -0.761,-0.349 -0.761,-0.761 l 0,0 0,-20.66 c 0,-0.412 0.317,-0.76 0.761,-0.76 l 0,0 2.788,0 c 0.412,0 0.76,0.348 0.76,0.76 l 0,0 0,9.664 8.271,-10.203 c 0.063,-0.094 0.253,-0.221 0.57,-0.221 l 0,0 3.454,0 c 0.634,0 0.888,0.696 0.571,1.109 l 0,0 -8.872,10.615 8.27,9.316 c 0.411,0.475 0.094,1.141 -0.507,1.141 l 0,0 -3.169,0 z m 6.147,-2.82 c 0,-1.205 0.951,-2.187 2.155,-2.187 l 0,0 c 1.235,0 2.218,0.982 2.218,2.187 l 0,0 c 0,1.204 -0.983,2.186 -2.218,2.186 l 0,0 c -1.204,0 -2.155,-0.982 -2.155,-2.186 m 61.917,-8.334 -0.444,1.235 c -0.095,0.254 -0.286,0.412 -0.57,0.412 l 0,0 -1.205,0 c -0.316,0 -0.601,-0.253 -0.601,-0.602 l 0,0 0,-11.471 c 0,-0.317 0.285,-0.601 0.601,-0.601 l 0,0 2.441,0 c 0.444,0 0.728,0.158 0.728,0.601 l 0,0 0,7.669 c 0.222,0.444 0.983,1.299 2.25,1.299 l 0,0 c 0.348,0 0.824,-0.158 0.919,-0.19 l 0,0 c 0.254,-0.127 0.57,0 0.729,0.285 l 0,0 1.172,2.06 c 0.38,0.792 -0.951,1.267 -2.439,1.267 l 0,0 c -1.965,0 -3.138,-1.33 -3.581,-1.964 m -17.872,-4.689 c 0,-3.645 2.693,-6.655 6.496,-6.655 l 0,0 c 2.06,0 3.676,0.761 4.722,1.742 l 0,0 c 0.316,0.254 0.254,0.603 0.031,0.824 l 0,0 -1.299,1.489 c -0.222,0.254 -0.507,0.19 -0.824,0 l 0,0 c -0.57,-0.412 -1.489,-0.792 -2.471,-0.792 l 0,0 c -1.838,0 -2.948,1.458 -3.042,2.757 l 0,0 8.111,0 c 0.286,0 0.571,0.222 0.603,0.539 l 0,0 c 0.031,0.222 0.063,0.634 0.063,0.855 l 0,0 c 0,3.423 -2.662,5.894 -5.926,5.894 l 0,0 c -3.771,0 -6.464,-3.073 -6.464,-6.653 m 6.37,3.738 c 1.204,0 2.217,-0.982 2.312,-2.154 l 0,0 -4.784,0 c 0.158,1.204 1.204,2.154 2.472,2.154 m -19.9,-3.738 c 0,-3.804 3.137,-6.655 6.717,-6.655 l 0,0 c 2.25,0 3.93,0.982 5.007,2.661 l 0,0 c 0.222,0.317 0.095,0.634 -0.222,0.888 l 0,0 -1.362,1.172 c -0.254,0.19 -0.571,0.126 -0.793,-0.095 l 0,0 c -0.57,-0.539 -1.172,-1.204 -2.534,-1.204 l 0,0 c -1.711,0 -3.074,1.425 -3.074,3.233 l 0,0 c 0,1.774 1.393,3.231 3.105,3.231 l 0,0 c 0.888,0 1.679,-0.443 2.186,-1.014 l 0,0 c 0.222,-0.19 0.508,-0.348 0.793,-0.095 l 0,0 1.457,1.394 c 0.317,0.222 0.381,0.603 0.159,0.887 l 0,0 c -1.205,1.458 -2.725,2.25 -4.69,2.25 l 0,0 c -3.549,0 -6.749,-2.915 -6.749,-6.653 m -6.053,6.336 c -0.317,0 -0.602,-0.253 -0.602,-0.602 l 0,0 0,-11.471 c 0,-0.317 0.285,-0.601 0.602,-0.601 l 0,0 2.63,0 c 0.318,0 0.603,0.284 0.603,0.601 l 0,0 0,11.471 c 0,0.349 -0.285,0.602 -0.603,0.602 l 0,0 -2.63,0 z m -7.414,0 c -0.508,0 -0.698,-0.126 -0.698,-0.602 l 0,0 0,-6.59 c -0.189,-1.142 -1.204,-2.377 -2.535,-2.377 l 0,0 c -1.457,0 -2.313,1.046 -2.313,2.725 l 0,0 0,6.242 c 0,0.349 -0.284,0.602 -0.602,0.602 l 0,0 -2.598,0 c -0.317,0 -0.602,-0.253 -0.602,-0.602 l 0,0 0,-6.147 c 0,-3.232 1.425,-6.242 5.355,-6.242 l 0,0 c 2.503,0 3.676,1.33 4.246,1.838 l 0,0 0.38,-1.046 c 0.096,-0.254 0.286,-0.475 0.603,-0.475 l 0,0 1.172,0 c 0.317,0 0.602,0.284 0.602,0.601 l 0,0 0,11.471 c 0,0.349 -0.285,0.602 -0.602,0.602 l 0,0 -2.408,0 z m -16.192,0 c -0.317,0 -0.602,-0.253 -0.602,-0.602 l 0,0 0,-15.495 c 0,-1.838 -0.793,-2.883 -2.219,-2.883 l 0,0 c -0.696,0 -1.457,0.38 -1.869,0.634 l 0,0 c -0.285,0.158 -0.634,0.094 -0.76,-0.159 l 0,0 -1.046,-2.028 c -0.127,-0.222 -0.096,-0.571 0.127,-0.729 l 0,0 c 0.538,-0.507 2.059,-1.236 3.739,-1.236 l 0,0 c 3.359,0 5.893,2.219 5.893,6.401 l 0,0 0,15.495 c 0,0.349 -0.285,0.602 -0.602,0.602 l 0,0 -2.661,0 z m 22.955,-19.412 c 0,-1.205 0.951,-2.187 2.156,-2.187 l 0,0 c 1.235,0 2.218,0.982 2.218,2.187 l 0,0 c 0,1.203 -0.983,2.186 -2.218,2.186 l 0,0 c -1.205,0 -2.156,-0.983 -2.156,-2.186"
         id="path20"
         inkscape:connector-curvature="0" /></clipPath><linearGradient
       x1="0"
       y1="0"
       x2="1"
       y2="0"
       gradientUnits="userSpaceOnUse"
       gradientTransform="matrix(0,60.004654,60.004654,0,76.948822,55.932358)"
       spreadMethod="pad"
       id="linearGradient26"><stop
         style="stop-opacity:1;stop-color:#16ff5d"
         offset="0"
         id="stop28" /><stop
         style="stop-opacity:1;stop-color:#16ff5d"
         offset="0.07782348"
         id="stop30" /><stop
         style="stop-opacity:1;stop-color:#97fc17"
         offset="0.463623"
         id="stop32" /><stop
         style="stop-opacity:1;stop-color:#97fc17"
         offset="0.57165571"
         id="stop34" /><stop
         style="stop-opacity:1;stop-color:#ffff00"
         offset="1"
         id="stop36" /></linearGradient><clipPath
       clipPathUnits="userSpaceOnUse"
       id="clipPath4225"><rect
         style="opacity:1;fill:none;fill-opacity:1;fill-rule:nonzero;stroke:none;stroke-width:18;stroke-miterlimit:4;stroke-dasharray:none;stroke-opacity:1"
         id="rect4227"
         width="46.430401"
         height="32.484879"
         x="104.82188"
         y="-115.87382"
         transform="scale(1,-1)"
         ry="0.0011898266" /></clipPath><linearGradient
       inkscape:collect="always"
       xlink:href="#linearGradient4182"
       id="linearGradient4229"
       gradientUnits="userSpaceOnUse"
       gradientTransform="matrix(0,60.004654,60.004654,0,76.948822,55.932358)"
       spreadMethod="pad"
       x1="0.47137964"
       y1="-2.220446e-16"
       x2="1"
       y2="0" /><linearGradient
       inkscape:collect="always"
       xlink:href="#linearGradient26"
       id="linearGradient4231"
       gradientUnits="userSpaceOnUse"
       gradientTransform="matrix(0,60.004654,60.004654,0,76.948822,55.932358)"
       spreadMethod="pad"
       x1="0"
       y1="0"
       x2="1"
       y2="0" /></defs><sodipodi:namedview
     pagecolor="#ffffff"
     bordercolor="#666666"
     borderopacity="1"
     objecttolerance="10"
     gridtolerance="10"
     guidetolerance="10"
     inkscape:pageopacity="0"
     inkscape:pageshadow="2"
     inkscape:window-width="1366"
     inkscape:window-height="705"
     id="namedview4"
     showgrid="false"
     inkscape:zoom="1.2334146"
     inkscape:cx="29.274156"
     inkscape:cy="66.991027"
     inkscape:window-x="0"
     inkscape:window-y="27"
     inkscape:window-maximized="1"
     inkscape:current-layer="g10"
     fit-margin-top="0"
     fit-margin-left="0"
     fit-margin-right="0"
     fit-margin-bottom="20" /><g
     id="g10"
     inkscape:groupmode="layer"
     inkscape:label="Kjuicer Logo"
     transform="matrix(1.25,0,0,-1.25,-78.978052,218.55673)"><g
       id="g14"
       transform="matrix(2.7568146,0,0,2.5457153,-214.79204,-153.78774)"
       clip-path="url(#clipPath4225)"><g
         id="g16"
         clip-path="url(#clipPath18)"><g
           id="g22"><g
             id="g24"><path
               d="m 128.028,115.925 c -0.056,-0.003 -0.107,-0.007 -0.158,-0.015 l 0,0 c -0.034,-0.005 -0.068,-0.01 -0.102,-0.019 l 0,0 -0.088,-0.017 c -0.055,-0.014 -0.145,-0.039 -0.266,-0.077 l 0,0 -0.028,-0.009 c -1.308,-0.401 -5.945,-2.088 -10.737,-6.955 l 0,0 C 110.63,102.716 106.74,94.129 105.084,83.302 l 0,0 3.321,0 c 2.18,13.527 7.781,20.897 12.119,24.706 l 0,0 2.082,1.828 -1.346,-2.422 c -2.803,-5.039 -6.211,-13.288 -6.669,-24.112 l 0,0 3.311,0 c 0.525,11.406 4.469,19.843 7.709,24.937 l 0,0 0.885,1.391 0,-26.328 3.279,0 0,26.252 0.884,-1.393 c 3.228,-5.085 7.156,-13.502 7.682,-24.859 l 0,0 3.312,0 c -0.46,10.832 -3.88,19.08 -6.693,24.12 l 0,0 -1.347,2.415 2.083,-1.82 c 4.353,-3.806 9.973,-11.176 12.154,-24.715 l 0,0 3.322,0 c -1.657,10.824 -5.551,19.41 -11.58,25.525 l 0,0 c -4.719,4.786 -9.298,6.502 -10.696,6.94 l 0,0 -0.066,0 -0.066,0.041 c -0.113,0.034 -0.195,0.057 -0.246,0.071 l 0,0 c -0.029,10e-4 -0.066,0.004 -0.109,0.013 l 0,0 c -0.015,0.003 -0.053,0.012 -0.09,0.023 l 0,0 -0.109,0.014 c -0.001,-0.001 -0.043,0.004 -0.076,0.008 l 0,0 c -0.049,-0.006 -0.077,-0.009 -0.106,-0.012 M 89.846,87.937 c -0.285,0 -0.475,-0.159 -0.602,-0.317 l 0,0 -7.986,-9 0,8.556 c 0,0.412 -0.348,0.761 -0.76,0.761 l 0,0 -2.788,0 c -0.444,0 -0.761,-0.349 -0.761,-0.761 l 0,0 0,-20.66 c 0,-0.412 0.317,-0.76 0.761,-0.76 l 0,0 2.788,0 c 0.412,0 0.76,0.348 0.76,0.76 l 0,0 0,9.664 8.271,-10.203 c 0.063,-0.094 0.253,-0.221 0.57,-0.221 l 0,0 3.454,0 c 0.634,0 0.888,0.696 0.571,1.109 l 0,0 -8.872,10.615 8.27,9.316 c 0.411,0.475 0.094,1.141 -0.507,1.141 l 0,0 -3.169,0 z m 6.147,-2.82 c 0,-1.205 0.951,-2.187 2.155,-2.187 l 0,0 c 1.235,0 2.218,0.982 2.218,2.187 l 0,0 c 0,1.204 -0.983,2.186 -2.218,2.186 l 0,0 c -1.204,0 -2.155,-0.982 -2.155,-2.186 m 61.917,-8.334 -0.444,1.235 c -0.095,0.254 -0.286,0.412 -0.57,0.412 l 0,0 -1.205,0 c -0.316,0 -0.601,-0.253 -0.601,-0.602 l 0,0 0,-11.471 c 0,-0.317 0.285,-0.601 0.601,-0.601 l 0,0 2.441,0 c 0.444,0 0.728,0.158 0.728,0.601 l 0,0 0,7.669 c 0.222,0.444 0.983,1.299 2.25,1.299 l 0,0 c 0.348,0 0.824,-0.158 0.919,-0.19 l 0,0 c 0.254,-0.127 0.57,0 0.729,0.285 l 0,0 1.172,2.06 c 0.38,0.792 -0.951,1.267 -2.439,1.267 l 0,0 c -1.965,0 -3.138,-1.33 -3.581,-1.964 m -17.872,-4.689 c 0,-3.645 2.693,-6.655 6.496,-6.655 l 0,0 c 2.06,0 3.676,0.761 4.722,1.742 l 0,0 c 0.316,0.254 0.254,0.603 0.031,0.824 l 0,0 -1.299,1.489 c -0.222,0.254 -0.507,0.19 -0.824,0 l 0,0 c -0.57,-0.412 -1.489,-0.792 -2.471,-0.792 l 0,0 c -1.838,0 -2.948,1.458 -3.042,2.757 l 0,0 8.111,0 c 0.286,0 0.571,0.222 0.603,0.539 l 0,0 c 0.031,0.222 0.063,0.634 0.063,0.855 l 0,0 c 0,3.423 -2.662,5.894 -5.926,5.894 l 0,0 c -3.771,0 -6.464,-3.073 -6.464,-6.653 m 6.37,3.738 c 1.204,0 2.217,-0.982 2.312,-2.154 l 0,0 -4.784,0 c 0.158,1.204 1.204,2.154 2.472,2.154 m -19.9,-3.738 c 0,-3.804 3.137,-6.655 6.717,-6.655 l 0,0 c 2.25,0 3.93,0.982 5.007,2.661 l 0,0 c 0.222,0.317 0.095,0.634 -0.222,0.888 l 0,0 -1.362,1.172 c -0.254,0.19 -0.571,0.126 -0.793,-0.095 l 0,0 c -0.57,-0.539 -1.172,-1.204 -2.534,-1.204 l 0,0 c -1.711,0 -3.074,1.425 -3.074,3.233 l 0,0 c 0,1.774 1.393,3.231 3.105,3.231 l 0,0 c 0.888,0 1.679,-0.443 2.186,-1.014 l 0,0 c 0.222,-0.19 0.508,-0.348 0.793,-0.095 l 0,0 1.457,1.394 c 0.317,0.222 0.381,0.603 0.159,0.887 l 0,0 c -1.205,1.458 -2.725,2.25 -4.69,2.25 l 0,0 c -3.549,0 -6.749,-2.915 -6.749,-6.653 m -6.053,6.336 c -0.317,0 -0.602,-0.253 -0.602,-0.602 l 0,0 0,-11.471 c 0,-0.317 0.285,-0.601 0.602,-0.601 l 0,0 2.63,0 c 0.318,0 0.603,0.284 0.603,0.601 l 0,0 0,11.471 c 0,0.349 -0.285,0.602 -0.603,0.602 l 0,0 -2.63,0 z m -7.414,0 c -0.508,0 -0.698,-0.126 -0.698,-0.602 l 0,0 0,-6.59 c -0.189,-1.142 -1.204,-2.377 -2.535,-2.377 l 0,0 c -1.457,0 -2.313,1.046 -2.313,2.725 l 0,0 0,6.242 c 0,0.349 -0.284,0.602 -0.602,0.602 l 0,0 -2.598,0 c -0.317,0 -0.602,-0.253 -0.602,-0.602 l 0,0 0,-6.147 c 0,-3.232 1.425,-6.242 5.355,-6.242 l 0,0 c 2.503,0 3.676,1.33 4.246,1.838 l 0,0 0.38,-1.046 c 0.096,-0.254 0.286,-0.475 0.603,-0.475 l 0,0 1.172,0 c 0.317,0 0.602,0.284 0.602,0.601 l 0,0 0,11.471 c 0,0.349 -0.285,0.602 -0.602,0.602 l 0,0 -2.408,0 z m -16.192,0 c -0.317,0 -0.602,-0.253 -0.602,-0.602 l 0,0 0,-15.495 c 0,-1.838 -0.793,-2.883 -2.219,-2.883 l 0,0 c -0.696,0 -1.457,0.38 -1.869,0.634 l 0,0 c -0.285,0.158 -0.634,0.094 -0.76,-0.159 l 0,0 -1.046,-2.028 c -0.127,-0.222 -0.096,-0.571 0.127,-0.729 l 0,0 c 0.538,-0.507 2.059,-1.236 3.739,-1.236 l 0,0 c 3.359,0 5.893,2.219 5.893,6.401 l 0,0 0,15.495 c 0,0.349 -0.285,0.602 -0.602,0.602 l 0,0 -2.661,0 z m 22.955,-19.412 c 0,-1.205 0.951,-2.187 2.156,-2.187 l 0,0 c 1.235,0 2.218,0.982 2.218,2.187 l 0,0 c 0,1.203 -0.983,2.186 -2.218,2.186 l 0,0 c -1.205,0 -2.156,-0.983 -2.156,-2.186"
               style="fill:url(#linearGradient4229);stroke:none"
               id="path38"
               inkscape:connector-curvature="0" /></g></g></g></g></g><g
     transform="matrix(1.25,0,0,-1.25,-78.978052,218.55673)"
     inkscape:label="Kjuicer Logo copia"
     inkscape:groupmode="layer"
     id="g4211"
     style="display:none"><g
       transform="matrix(2.765946,0,0,2.5457153,-212.74758,-142.23506)"
       id="g4213"><g
         clip-path="url(#clipPath18)"
         id="g4215"><g
           id="g4217"><g
             id="g4219"><path
               inkscape:connector-curvature="0"
               id="path4221"
               style="fill:url(#linearGradient4231);stroke:none"
               d="m 128.028,115.925 c -0.056,-0.003 -0.107,-0.007 -0.158,-0.015 l 0,0 c -0.034,-0.005 -0.068,-0.01 -0.102,-0.019 l 0,0 -0.088,-0.017 c -0.055,-0.014 -0.145,-0.039 -0.266,-0.077 l 0,0 -0.028,-0.009 c -1.308,-0.401 -5.945,-2.088 -10.737,-6.955 l 0,0 C 110.63,102.716 106.74,94.129 105.084,83.302 l 0,0 3.321,0 c 2.18,13.527 7.781,20.897 12.119,24.706 l 0,0 2.082,1.828 -1.346,-2.422 c -2.803,-5.039 -6.211,-13.288 -6.669,-24.112 l 0,0 3.311,0 c 0.525,11.406 4.469,19.843 7.709,24.937 l 0,0 0.885,1.391 0,-26.328 3.279,0 0,26.252 0.884,-1.393 c 3.228,-5.085 7.156,-13.502 7.682,-24.859 l 0,0 3.312,0 c -0.46,10.832 -3.88,19.08 -6.693,24.12 l 0,0 -1.347,2.415 2.083,-1.82 c 4.353,-3.806 9.973,-11.176 12.154,-24.715 l 0,0 3.322,0 c -1.657,10.824 -5.551,19.41 -11.58,25.525 l 0,0 c -4.719,4.786 -9.298,6.502 -10.696,6.94 l 0,0 -0.066,0 -0.066,0.041 c -0.113,0.034 -0.195,0.057 -0.246,0.071 l 0,0 c -0.029,10e-4 -0.066,0.004 -0.109,0.013 l 0,0 c -0.015,0.003 -0.053,0.012 -0.09,0.023 l 0,0 -0.109,0.014 c -0.001,-0.001 -0.043,0.004 -0.076,0.008 l 0,0 c -0.049,-0.006 -0.077,-0.009 -0.106,-0.012 M 89.846,87.937 c -0.285,0 -0.475,-0.159 -0.602,-0.317 l 0,0 -7.986,-9 0,8.556 c 0,0.412 -0.348,0.761 -0.76,0.761 l 0,0 -2.788,0 c -0.444,0 -0.761,-0.349 -0.761,-0.761 l 0,0 0,-20.66 c 0,-0.412 0.317,-0.76 0.761,-0.76 l 0,0 2.788,0 c 0.412,0 0.76,0.348 0.76,0.76 l 0,0 0,9.664 8.271,-10.203 c 0.063,-0.094 0.253,-0.221 0.57,-0.221 l 0,0 3.454,0 c 0.634,0 0.888,0.696 0.571,1.109 l 0,0 -8.872,10.615 8.27,9.316 c 0.411,0.475 0.094,1.141 -0.507,1.141 l 0,0 -3.169,0 z m 6.147,-2.82 c 0,-1.205 0.951,-2.187 2.155,-2.187 l 0,0 c 1.235,0 2.218,0.982 2.218,2.187 l 0,0 c 0,1.204 -0.983,2.186 -2.218,2.186 l 0,0 c -1.204,0 -2.155,-0.982 -2.155,-2.186 m 61.917,-8.334 -0.444,1.235 c -0.095,0.254 -0.286,0.412 -0.57,0.412 l 0,0 -1.205,0 c -0.316,0 -0.601,-0.253 -0.601,-0.602 l 0,0 0,-11.471 c 0,-0.317 0.285,-0.601 0.601,-0.601 l 0,0 2.441,0 c 0.444,0 0.728,0.158 0.728,0.601 l 0,0 0,7.669 c 0.222,0.444 0.983,1.299 2.25,1.299 l 0,0 c 0.348,0 0.824,-0.158 0.919,-0.19 l 0,0 c 0.254,-0.127 0.57,0 0.729,0.285 l 0,0 1.172,2.06 c 0.38,0.792 -0.951,1.267 -2.439,1.267 l 0,0 c -1.965,0 -3.138,-1.33 -3.581,-1.964 m -17.872,-4.689 c 0,-3.645 2.693,-6.655 6.496,-6.655 l 0,0 c 2.06,0 3.676,0.761 4.722,1.742 l 0,0 c 0.316,0.254 0.254,0.603 0.031,0.824 l 0,0 -1.299,1.489 c -0.222,0.254 -0.507,0.19 -0.824,0 l 0,0 c -0.57,-0.412 -1.489,-0.792 -2.471,-0.792 l 0,0 c -1.838,0 -2.948,1.458 -3.042,2.757 l 0,0 8.111,0 c 0.286,0 0.571,0.222 0.603,0.539 l 0,0 c 0.031,0.222 0.063,0.634 0.063,0.855 l 0,0 c 0,3.423 -2.662,5.894 -5.926,5.894 l 0,0 c -3.771,0 -6.464,-3.073 -6.464,-6.653 m 6.37,3.738 c 1.204,0 2.217,-0.982 2.312,-2.154 l 0,0 -4.784,0 c 0.158,1.204 1.204,2.154 2.472,2.154 m -19.9,-3.738 c 0,-3.804 3.137,-6.655 6.717,-6.655 l 0,0 c 2.25,0 3.93,0.982 5.007,2.661 l 0,0 c 0.222,0.317 0.095,0.634 -0.222,0.888 l 0,0 -1.362,1.172 c -0.254,0.19 -0.571,0.126 -0.793,-0.095 l 0,0 c -0.57,-0.539 -1.172,-1.204 -2.534,-1.204 l 0,0 c -1.711,0 -3.074,1.425 -3.074,3.233 l 0,0 c 0,1.774 1.393,3.231 3.105,3.231 l 0,0 c 0.888,0 1.679,-0.443 2.186,-1.014 l 0,0 c 0.222,-0.19 0.508,-0.348 0.793,-0.095 l 0,0 1.457,1.394 c 0.317,0.222 0.381,0.603 0.159,0.887 l 0,0 c -1.205,1.458 -2.725,2.25 -4.69,2.25 l 0,0 c -3.549,0 -6.749,-2.915 -6.749,-6.653 m -6.053,6.336 c -0.317,0 -0.602,-0.253 -0.602,-0.602 l 0,0 0,-11.471 c 0,-0.317 0.285,-0.601 0.602,-0.601 l 0,0 2.63,0 c 0.318,0 0.603,0.284 0.603,0.601 l 0,0 0,11.471 c 0,0.349 -0.285,0.602 -0.603,0.602 l 0,0 -2.63,0 z m -7.414,0 c -0.508,0 -0.698,-0.126 -0.698,-0.602 l 0,0 0,-6.59 c -0.189,-1.142 -1.204,-2.377 -2.535,-2.377 l 0,0 c -1.457,0 -2.313,1.046 -2.313,2.725 l 0,0 0,6.242 c 0,0.349 -0.284,0.602 -0.602,0.602 l 0,0 -2.598,0 c -0.317,0 -0.602,-0.253 -0.602,-0.602 l 0,0 0,-6.147 c 0,-3.232 1.425,-6.242 5.355,-6.242 l 0,0 c 2.503,0 3.676,1.33 4.246,1.838 l 0,0 0.38,-1.046 c 0.096,-0.254 0.286,-0.475 0.603,-0.475 l 0,0 1.172,0 c 0.317,0 0.602,0.284 0.602,0.601 l 0,0 0,11.471 c 0,0.349 -0.285,0.602 -0.602,0.602 l 0,0 -2.408,0 z m -16.192,0 c -0.317,0 -0.602,-0.253 -0.602,-0.602 l 0,0 0,-15.495 c 0,-1.838 -0.793,-2.883 -2.219,-2.883 l 0,0 c -0.696,0 -1.457,0.38 -1.869,0.634 l 0,0 c -0.285,0.158 -0.634,0.094 -0.76,-0.159 l 0,0 -1.046,-2.028 c -0.127,-0.222 -0.096,-0.571 0.127,-0.729 l 0,0 c 0.538,-0.507 2.059,-1.236 3.739,-1.236 l 0,0 c 3.359,0 5.893,2.219 5.893,6.401 l 0,0 0,15.495 c 0,0.349 -0.285,0.602 -0.602,0.602 l 0,0 -2.661,0 z m 22.955,-19.412 c 0,-1.205 0.951,-2.187 2.156,-2.187 l 0,0 c 1.235,0 2.218,0.982 2.218,2.187 l 0,0 c 0,1.203 -0.983,2.186 -2.218,2.186 l 0,0 c -1.205,0 -2.156,-0.983 -2.156,-2.186" /></g></g></g></g></g></svg>